<svg xmlns="http://www.w3.org/2000/svg" viewBox="0 0 128 128" width="64" height="64"><path d="M114 1H64c-1.7 0-3 1.3-3 3v14.4c0 2.2 1.2 4.2 3 5.2 1.9 1.1 4.1 1.1 5.9 0 1.8-1.1 3.9-1.6 6-1.6 3.3 0 6.4 1.3 8.7 3.7 2.3 2.4 3.5 5.5 3.3 8.9-.3 6.2-5.4 11.2-11.5 11.4-2.3.1-4.5-.5-6.5-1.6-1.8-1.1-4.1-1.1-5.9 0-1.9 1.1-3 3.1-3 5.2V61l-11.5.1c1.7-2.9 2.6-6.3 2.4-9.8-.4-9.2-7.9-16.8-17.1-17.3-5-.2-9.7 1.5-13.3 4.9C18 42.4 16 47 16 52c0 3.2.8 6.3 2.4 9H4c-1.7 0-3 1.3-3 3v50c0 7.2 5.8 13 13 13h50c1.7 0 3-1.3 3-3v-14.4c0-2.2-1.2-4.2-3-5.2-1.9-1.1-4.1-1.1-5.9 0-1.8 1.1-3.9 1.6-6 1.6-3.3 0-6.4-1.3-8.7-3.7-2.3-2.4-3.5-5.5-3.3-8.9.3-6.2 5.4-11.2 11.5-11.4 2.3-.1 4.5.5 6.5 1.6 1.8 1.1 4.1 1.1 5.9 0 1.9-1.1 3-3.1 3-5.2V67h11.5c-1.7 3-2.6 6.3-2.4 9.8.4 9.2 7.9 16.8 17.1 17.3 5 .2 9.7-1.5 13.3-4.9 3.6-3.4 5.6-8.1 5.6-13 0-3.2-.8-6.3-2.4-9H121v47c0 3.9-3.1 7-7 7H84c-1.7 0-3 1.3-3 3s1.3 3 3 3h30c7.2 0 13-5.8 13-13V14c0-7.2-5.8-13-13-13zM51.3 76c-9.2.4-16.8 7.9-17.3 17.1-.2 5 1.5 9.7 4.9 13.3 3.4 3.6 8.1 5.6 13 5.6 3.2 0 6.3-.8 9-2.4V121H14c-3.9 0-7-3.1-7-7V67h11.4c2.2 0 4.2-1.2 5.2-3s1.1-4.1 0-5.9c-1.1-1.8-1.6-3.9-1.6-6 0-3.3 1.3-6.4 3.7-8.7 2.4-2.3 5.6-3.5 8.9-3.3 6.2.3 11.2 5.4 11.4 11.5.1 2.3-.5 4.5-1.6 6.5-1.1 1.8-1.1 4.1 0 5.9s3.1 3 5.2 3H61v11.5c-2.9-1.8-6.3-2.6-9.7-2.5zM121 61h-11.4c-2.2 0-4.2 1.2-5.2 3-1.1 1.9-1.1 4.1 0 5.9 1.1 1.8 1.6 3.9 1.6 6 0 3.3-1.3 6.4-3.7 8.7-2.4 2.3-5.6 3.5-8.9 3.3-6.2-.3-11.2-5.4-11.4-11.5-.1-2.3.5-4.5 1.6-6.5 1.1-1.8 1.1-4.1 0-5.9-1.1-1.9-3.1-3-5.2-3H67V49.5c2.9 1.7 6.3 2.6 9.8 2.4 9.2-.4 16.8-7.9 17.3-17.1.2-5-1.5-9.7-4.9-13.3C85.6 18 81 16 76 16c-3.2 0-6.3.8-9 2.4V7h47c3.9 0 7 3.1 7 7v47z"/></svg>